<?xml version="1.0" encoding="UTF-8" standalone="no"?>
<!--part of the matt icon theme by sixsixfive released under CC0 (https://creativecommons.org/publicdomain/zero/1.0/) on openclipart-->
<svg xmlns="http://www.w3.org/2000/svg" xmlns:xlink="http://www.w3.org/1999/xlink" viewBox="0 0 128 128">
 <defs id="0">
  <linearGradient id="3">
   <stop id="D" stop-color="#8e79a5"/>
   <stop id="E" offset="1" stop-color="#462886"/>
  </linearGradient>
  <linearGradient id="4">
   <stop id="F"/>
   <stop id="G" offset="1" stop-opacity="0"/>
  </linearGradient>
  <linearGradient id="5">
   <stop id="H" stop-color="#eee"/>
   <stop id="I" offset="1" stop-color="#eee" stop-opacity="0"/>
  </linearGradient>
  <radialGradient cx="66.32" cy="123.76" r="59.17" id="6" xlink:href="#4" gradientUnits="userSpaceOnUse" gradientTransform="matrix(1,0,0,0.07169811,0,114.88438)"/>
  <radialGradient cx="63.48" cy="-20.313" r="55.19" id="7" xlink:href="#5" gradientUnits="userSpaceOnUse" gradientTransform="matrix(1.4479062,-0.03952114,0.02728521,0.9996277,-27.352446,2.438561)"/>
  <linearGradient y1="8.854" x2="0" y2="119.15" id="8" xlink:href="#3" gradientUnits="userSpaceOnUse"/>
 </defs>
 <path d="m 125.48681,123.75756 a 59.170826,4.2424364 0 1 1 -118.3416493,0 59.170826,4.2424364 0 1 1 118.3416493,0 z" transform="matrix(1.2037736,0,0,1,-15.829434,-1.949999)" id="1" opacity="0.398" fill="url(#6)"/>
 <g transform="matrix(1.0250934,0,0,1.0250934,-1.6059776,-3.6559776)" id="2">
  <path d="M 32.25,5.46875 C 17.475381,5.46875 5.46875,17.475382 5.46875,32.25 l 0,63.5 c 0,14.77462 12.00663,26.78125 26.78125,26.78125 l 63.5,0 c 14.77462,0 26.78125,-12.00663 26.78125,-26.78125 l 0,-63.5 C 122.53125,17.475381 110.52462,5.46875 95.75,5.46875 l -63.5,0 z" id="9" fill="#34176e"/>
  <rect width="110.29" height="110.29" rx="23.397" x="8.854" y="8.854" id="A" fill="url(#8)"/>
  <path d="M 75.150644,32.147117 63.78967,78.921886 c -2.674692,-1.745092 -6.345823,-2.84243 -10.38105,-2.84243 -8.1862,0 -14.830075,4.42925 -14.830073,9.886714 0,5.457467 6.643871,9.886709 14.830073,9.886715 8.186199,0 14.83007,-4.429244 14.830072,-9.886715 l 6.767096,-41.762622 c 7.101443,9.508147 0.09875,-0.186582 6.888928,9.32184 8.138576,9.690429 2.107332,13.62007 2.065657,19.589801 5.098156,-4.802025 8.39076,-11.849336 1.703653,-21.505354 C 80.388578,45.62826 77.56092,38.947314 75.150644,32.147117 l 0,0 z" id="B" fill="#eee"/>
  <path d="m 32.25,10.3125 c -12.180814,0 -21.9375,9.756686 -21.9375,21.9375 l 0,63.5 c 0,12.18081 9.756687,21.9375 21.9375,21.9375 l 63.5,0 c 12.18081,0 21.9375,-9.75669 21.9375,-21.9375 l 0,-63.5 c 0,-12.180813 -9.75669,-21.9375 -21.9375,-21.9375 l -63.5,0 z" id="C" fill="none" stroke="url(#7)" stroke-width="3"/>
 </g>
</svg>
